<svg width="512" height="320" viewBox="0 0 512 320" xmlns="http://www.w3.org/2000/svg" role="img" aria-labelledby="title desc">
  <title id="title">Banknote Watermark Illustration</title>
  <desc id="desc">Stylised banknote showing a translucent portrait watermark when held to light.</desc>
  <defs>
    <linearGradient id="bg" x1="0" y1="0" x2="1" y2="1">
      <stop offset="0" stop-color="#f5f9ff" />
      <stop offset="1" stop-color="#e2ecff" />
    </linearGradient>
    <linearGradient id="shine" x1="0" y1="0" x2="1" y2="1">
      <stop offset="0" stop-color="rgba(255,255,255,0.65)" />
      <stop offset="1" stop-color="rgba(144,173,255,0.25)" />
    </linearGradient>
  </defs>
  <rect x="24" y="24" width="464" height="272" rx="24" fill="url(#bg)" stroke="#c4d7ff" stroke-width="6" />
  <rect x="48" y="48" width="416" height="224" rx="18" fill="white" fill-opacity="0.65" stroke="#ebf2ff" stroke-width="4" />
  <circle cx="164" cy="160" r="86" fill="url(#shine)" />
  <path d="M164 94c32 0 58 26 58 58s-26 58-58 58-58-26-58-58 26-58 58-58Zm0 20c-21 0-38 17-38 38s17 38 38 38 38-17 38-38-17-38-38-38Z" fill="#8ea7ff" fill-opacity="0.45" />
  <rect x="264" y="104" width="180" height="24" rx="12" fill="#d5e2ff" />
  <rect x="264" y="144" width="160" height="18" rx="9" fill="#dfe7ff" />
  <rect x="264" y="176" width="120" height="18" rx="9" fill="#dfe7ff" />
  <rect x="264" y="208" width="180" height="32" rx="16" fill="#bfd0ff" fill-opacity="0.6" />
  <text x="48" y="300" fill="#90a4ff" font-family="'Inter', 'Segoe UI', sans-serif" font-size="18" font-weight="600">WATERMARK VISIBLE IN TRANSMITTED LIGHT</text>
</svg>






